<svg width="48" height="49" viewBox="0 0 48 49" fill="none" xmlns="http://www.w3.org/2000/svg">
<path d="M30.9003 33.2396L24.8803 27.205C24.6603 26.9845 24.4003 26.9444 24.2603 26.9444C24.1203 26.9444 23.8603 26.9845 23.6403 27.205L17.6003 33.2597C16.9203 33.9413 15.8603 35.044 12.3203 35.044L19.7403 42.462C20.8653 43.5884 22.3903 44.221 23.9803 44.221C25.5703 44.221 27.0953 43.5884 28.2203 42.462L35.6603 35.024C33.8403 35.024 32.3203 34.6631 30.9003 33.2396V33.2396ZM17.6003 15.0956L23.6403 21.1503C23.8003 21.3107 24.0403 21.4109 24.2603 21.4109C24.4803 21.4109 24.7203 21.3107 24.8803 21.1503L30.8603 15.1557C32.2803 13.6721 33.9003 13.3313 35.7203 13.3313L28.2803 5.89327C27.1553 4.76693 25.6303 4.13428 24.0403 4.13428C22.4503 4.13428 20.9253 4.76693 19.8003 5.89327L12.3803 13.3113C15.9003 13.3113 16.9803 14.4741 17.6003 15.0956V15.0956Z" fill="black"/>
<path d="M42.2196 19.867L37.7196 15.336H35.1996C34.1196 15.336 33.0396 15.7771 32.2996 16.559L26.2996 22.5736C25.7396 23.1349 24.9996 23.4156 24.2596 23.4156C23.4976 23.4049 22.7682 23.1038 22.2196 22.5736L16.1796 16.4988C15.4196 15.737 14.3796 15.2959 13.2796 15.2959H10.3396L5.7596 19.9071C4.636 21.0348 4.00488 22.5635 4.00488 24.1574C4.00488 25.7513 4.636 27.28 5.7596 28.4077L10.3396 33.0189H13.2996C14.3796 33.0189 15.4196 32.5778 16.1996 31.816L22.2396 25.7613C22.7996 25.1999 23.5396 24.9193 24.2796 24.9193C25.0196 24.9193 25.7596 25.1999 26.3196 25.7613L32.3396 31.7959C33.0996 32.5578 34.1396 32.9989 35.2396 32.9989H37.7596L42.2596 28.4679C43.3879 27.3198 44.0171 25.7708 44.0096 24.1592C44.0021 22.5476 43.3586 21.0044 42.2196 19.867V19.867Z" fill="black"/>
</svg>
