<svg width="64" height="64" viewBox="0 0 64 64" fill="none" xmlns="http://www.w3.org/2000/svg">
<path fill-rule="evenodd" clip-rule="evenodd" d="M32 0C49.6613 0 64 14.3387 64 32C64 49.6613 49.6613 64 32 64C14.3387 64 0 49.6613 0 32C0 14.3387 14.3387 0 32 0ZM53.672 51.76C52.92 50.6907 51.6133 50.016 49.3413 49.4933C39.08 47.0773 38.416 45.4907 37.736 44.0027C37.0453 42.496 37.2293 40.7227 38.2827 38.7307C42.8853 30.0453 43.856 22.6667 41.0213 17.9573C39.224 14.9733 36.0213 13.3333 32 13.3333C27.944 13.3333 24.7147 15.0027 22.9093 18.0347C20.0667 22.8053 21.0613 30.152 25.7067 38.72C26.7787 40.6987 26.976 42.4693 26.2933 43.984C25.5867 45.5467 24.664 47.1573 14.6533 49.4933C12.3813 50.016 11.0747 50.6907 10.3253 51.7547C15.6907 57.64 23.4187 61.3333 32 61.3333C40.5813 61.3333 48.3067 57.64 53.672 51.76ZM55.4053 49.6747C59.1253 44.7573 61.3333 38.6347 61.3333 32C61.3333 15.8107 48.1893 2.66667 32 2.66667C15.8107 2.66667 2.66667 15.8107 2.66667 32C2.66667 38.632 4.872 44.7547 8.592 49.6693C9.68267 48.464 11.3893 47.5093 14.056 46.8933C19.456 45.6613 23.0587 44.664 23.864 42.888C24.1893 42.1627 24.0267 41.2133 23.3627 39.9893C18.2507 30.5627 17.2773 22.28 20.616 16.6693C22.8907 12.8533 27.0373 10.6667 32 10.6667C36.92 10.6667 41.0427 12.8213 43.3067 16.5813C46.6427 22.1253 45.696 30.4347 40.64 39.9787C39.9867 41.2133 39.8293 42.168 40.1627 42.896C40.976 44.6773 44.5467 45.664 49.9413 46.8933C52.608 47.5067 54.3147 48.4667 55.4053 49.6747Z" fill="#F3F3F3"/>
</svg>
